<svg xmlns="http://www.w3.org/2000/svg" width="568" height="568" viewBox="0 0 568 568" fill="#295a6f"><path d="M237.16,98H189.33V46.84A46.84,46.84,0,0,0,142.49,0h-1A46.84,46.84,0,0,0,94.67,46.84V98H46.84A46.84,46.84,0,0,0,0,144.8v1a46.84,46.84,0,0,0,46.84,46.84H94.67v44.54A46.84,46.84,0,0,0,141.51,284h1a46.84,46.84,0,0,0,46.84-46.84V192.62h47.83A46.84,46.84,0,0,0,284,145.78v-1A46.84,46.84,0,0,0,237.16,98Z"/><path d="M521.16,382H473.33V330.84A46.84,46.84,0,0,0,426.49,284h-1a46.84,46.84,0,0,0-46.84,46.84V382H330.84A46.84,46.84,0,0,0,284,428.8v1a46.84,46.84,0,0,0,46.84,46.84h47.83v44.54A46.84,46.84,0,0,0,425.51,568h1a46.84,46.84,0,0,0,46.84-46.84V476.62h47.83A46.84,46.84,0,0,0,568,429.78v-1A46.84,46.84,0,0,0,521.16,382Z"/></svg>